<svg width="1024" height="1024" viewBox="0 0 1024 1024" fill="none" xmlns="http://www.w3.org/2000/svg">
<path d="M449.279 116.377C477.671 68.9969 546.329 68.9968 574.72 116.377L606.649 169.66C623.207 197.291 655.897 210.832 687.144 203.002L747.397 187.902C800.976 174.476 849.525 223.024 836.098 276.603L820.998 336.856C813.168 368.103 826.708 400.793 854.34 417.351L907.623 449.279C955.003 477.671 955.003 546.329 907.623 574.72L854.34 606.649C826.708 623.207 813.168 655.897 820.998 687.144L836.098 747.397C849.524 800.976 800.976 849.525 747.397 836.098L687.144 820.998C655.897 813.168 623.207 826.709 606.649 854.34L574.721 907.623C546.329 955.003 477.671 955.003 449.279 907.623L417.351 854.34C400.793 826.709 368.103 813.168 336.856 820.998L276.603 836.098C223.024 849.525 174.475 800.976 187.902 747.398L203.002 687.144C210.832 655.897 197.291 623.207 169.66 606.649L116.377 574.721C68.9971 546.329 68.997 477.671 116.377 449.28L169.66 417.351C197.291 400.793 210.832 368.103 203.002 336.856L187.902 276.603C174.475 223.024 223.024 174.476 276.602 187.902L336.856 203.002C368.103 210.832 400.793 197.291 417.351 169.66L449.279 116.377Z" fill="url(#paint0_radial_62_236)"/>
<g filter="url(#filter0_dddddd_62_236)">
<path fill-rule="evenodd" clip-rule="evenodd" d="M771.481 252.491C744.244 225.254 682.182 238.722 607.298 281.894C584.874 198.411 550.512 145 511.992 145C473.473 145 439.112 198.408 416.688 281.886C341.807 238.718 279.749 225.252 252.513 252.488C225.274 279.727 238.746 341.795 281.924 416.686C198.424 439.11 145 473.475 145 512C145 550.518 198.405 584.879 281.88 607.303C238.698 682.196 225.225 744.267 252.465 771.507C279.706 798.748 341.782 785.273 416.68 742.086C439.104 825.58 473.468 879 511.992 879C550.516 879 584.882 825.577 607.305 742.078C682.208 785.269 744.287 798.747 771.529 771.505C798.769 744.266 785.296 682.196 742.116 607.304C825.593 584.88 879 550.519 879 512C879 473.475 825.574 439.109 742.072 416.685C785.249 341.796 798.72 279.729 771.481 252.491Z" fill="#FACE9E"/>
</g>
<g filter="url(#filter1_d_62_236)">
<path d="M595.834 815.232L554.465 882.288C533.474 916.312 489.537 916.623 468.182 882.898L425.5 815.494C416.726 801.637 412 784.952 412 767.828L412.03 685.912C412.03 655.966 422.406 627.246 440.875 606.071C459.345 584.896 484.395 573 510.515 573C536.635 573 561.685 584.896 580.154 606.071C598.624 627.246 609 655.966 609 685.912L608.825 768.38C608.825 785.162 604.286 801.531 595.834 815.232Z" fill="url(#paint1_linear_62_236)"/>
</g>
<g filter="url(#filter2_d_62_236)">
<path d="M595.834 205.321L554.465 137.865C533.474 103.638 489.537 103.326 468.182 137.252L425.5 205.059C416.726 218.998 412 235.783 412 253.008L412.03 335.414C412.03 365.539 422.406 394.43 440.875 415.731C459.345 437.033 484.395 449 510.515 449C536.635 449 561.685 437.033 580.154 415.731C598.624 394.43 609 365.539 609 335.414L608.825 252.453C608.825 235.571 604.286 219.104 595.834 205.321Z" fill="url(#paint2_linear_62_236)"/>
</g>
<g filter="url(#filter3_d_62_236)">
<path d="M819.232 596.834L886.288 555.465C920.312 534.474 920.623 490.537 886.898 469.182L819.494 426.5C805.637 417.726 788.952 413 771.828 413L689.912 413.03C659.966 413.03 631.246 423.406 610.071 441.875C588.896 460.345 577 485.395 577 511.515C577 537.635 588.896 562.685 610.071 581.154C631.246 599.624 659.966 610 689.912 610L772.38 609.825C789.162 609.825 805.531 605.286 819.232 596.834Z" fill="url(#paint3_linear_62_236)"/>
</g>
<g filter="url(#filter4_d_62_236)">
<path d="M205.598 596.834L137.942 555.465C103.613 534.474 103.3 490.537 137.327 469.182L205.335 426.5C219.316 417.726 236.15 413 253.427 413L336.077 413.03C366.291 413.03 395.268 423.406 416.633 441.875C437.997 460.345 450 485.395 450 511.515C450 537.635 437.997 562.685 416.633 581.154C395.268 599.624 366.291 610 336.077 610L252.87 609.825C235.938 609.825 219.422 605.286 205.598 596.834Z" fill="url(#paint4_linear_62_236)"/>
</g>
<g filter="url(#filter5_g_62_236)">
<path d="M166.9 497.265L149.457 508.603C147.361 509.966 147.361 513.034 149.457 514.397L166.9 525.735C168.834 526.992 170 529.141 170 531.447C170 536.852 164.007 540.105 159.475 537.159L142.751 526.288C132.05 519.333 132.05 503.667 142.751 496.712L159.475 485.841C164.007 482.895 170 486.148 170 491.553C170 493.859 168.834 496.008 166.9 497.265Z" fill="#FF5353" fill-opacity="0.62"/>
<path d="M165.471 497.873L166.646 500.634L165.471 497.873ZM162.968 499.637L160.77 497.595L162.968 499.637ZM160.337 501.205L159.57 498.304L160.337 501.205ZM149.068 512.777L146.448 514.239L149.068 512.777ZM150.642 515.146L148.247 516.951L150.642 515.146ZM156.05 518.036L158.097 515.843L156.05 518.036ZM166.045 525.107L168.05 522.875L166.045 525.107ZM168.408 527.137L170.314 524.82L168.408 527.137ZM160.504 537.347L161.541 534.532L160.504 537.347ZM157.595 536.355L158.499 533.494L157.595 536.355ZM154.953 534.804L152.886 536.978L154.953 534.804ZM147.383 529.606L148.618 526.872L147.383 529.606ZM144.842 527.901L142.782 530.082L144.842 527.901ZM142.184 526.297L141.19 529.127L142.184 526.297ZM137.966 521.764L139.344 519.099L137.966 521.764ZM136.545 519.224L133.551 519.037L136.545 519.224ZM136.847 504.611L134.027 503.589L136.847 504.611ZM144.412 495.497L142.006 493.704L144.412 495.497ZM154.979 489.295L154.108 486.425L154.979 489.295ZM168.328 487.136L167.057 489.854L168.328 487.136ZM167.097 496.698L169.931 497.684L167.097 496.698ZM165.471 497.873L164.296 495.113C162.949 495.686 161.768 496.521 160.77 497.595L162.968 499.637L165.165 501.679C165.599 501.213 166.086 500.872 166.646 500.634L165.471 497.873ZM162.968 499.637L160.77 497.595C160.449 497.941 160.072 498.171 159.57 498.304L160.337 501.205L161.104 504.105C162.678 503.689 164.055 502.875 165.165 501.679L162.968 499.637ZM160.337 501.205L159.57 498.304C158.037 498.709 156.678 499.475 155.554 500.595L157.672 502.72L159.79 504.845C160.143 504.493 160.56 504.249 161.104 504.105L160.337 501.205ZM157.672 502.72L155.554 500.595C155.118 501.03 154.623 501.349 154.043 501.566L155.098 504.375L156.153 507.183C157.529 506.667 158.749 505.882 159.79 504.845L157.672 502.72ZM155.098 504.375L154.043 501.566C152.354 502.201 151.061 503.377 150.176 504.905L152.771 506.41L155.367 507.914C155.628 507.464 155.886 507.283 156.153 507.183L155.098 504.375ZM152.771 506.41L150.176 504.905C149.996 505.214 149.839 505.311 149.59 505.371L150.3 508.286L151.01 511.201C152.909 510.738 154.399 509.583 155.367 507.914L152.771 506.41ZM150.3 508.286L149.59 505.371C148.638 505.603 147.632 506.069 146.839 506.945C146.027 507.843 145.663 508.924 145.586 509.969L148.578 510.189L151.57 510.409C151.569 510.417 151.562 510.491 151.517 510.606C151.47 510.725 151.394 510.854 151.288 510.971C151.069 511.213 150.887 511.231 151.01 511.201L150.3 508.286ZM148.578 510.189L145.586 509.969C145.478 511.427 145.703 512.903 146.448 514.239L149.068 512.777L151.688 511.315C151.632 511.215 151.529 510.965 151.57 510.409L148.578 510.189ZM149.068 512.777L146.448 514.239C146.933 515.107 147.539 516.013 148.247 516.951L150.642 515.146L153.038 513.341C152.448 512.558 152.005 511.884 151.688 511.315L149.068 512.777ZM150.642 515.146L148.247 516.951C149.377 518.452 150.948 519.368 152.781 519.667L153.265 516.707L153.749 513.746C153.383 513.686 153.205 513.562 153.038 513.341L150.642 515.146ZM153.265 516.707L152.781 519.667C153.342 519.759 153.713 519.959 154.003 520.23L156.05 518.036L158.097 515.843C156.873 514.701 155.387 514.014 153.749 513.746L153.265 516.707ZM156.05 518.036L154.003 520.23C154.88 521.048 155.815 521.787 156.806 522.443L158.462 519.941L160.117 517.439C159.408 516.969 158.734 516.438 158.097 515.843L156.05 518.036ZM158.462 519.941L156.806 522.443C157.365 522.812 157.881 523.29 158.351 523.901L160.728 522.07L163.104 520.239C162.255 519.137 161.26 518.195 160.117 517.439L158.462 519.941ZM160.728 522.07L158.351 523.901C159.439 525.314 160.906 526.247 162.643 526.641L163.307 523.716L163.971 520.79C163.588 520.703 163.335 520.539 163.104 520.239L160.728 522.07ZM163.307 523.716L162.643 526.641C163.234 526.775 163.678 527.014 164.041 527.34L166.045 525.107L168.05 522.875C166.882 521.827 165.501 521.137 163.971 520.79L163.307 523.716ZM166.045 525.107L164.041 527.34C164.839 528.056 165.66 528.761 166.503 529.454L168.408 527.137L170.314 524.82C169.537 524.181 168.782 523.533 168.05 522.875L166.045 525.107ZM168.408 527.137L166.503 529.454C166.537 529.482 166.537 529.488 166.52 529.466C166.502 529.442 166.478 529.402 166.457 529.348C166.437 529.295 166.43 529.252 166.428 529.229C166.426 529.209 166.43 529.221 166.422 529.275L169.39 529.714L172.357 530.152C172.664 528.077 171.951 526.166 170.314 524.82L168.408 527.137ZM169.39 529.714L166.422 529.275C166.206 530.733 166.29 532.193 166.654 533.631L169.562 532.894L172.47 532.158C172.293 531.459 172.262 530.798 172.357 530.152L169.39 529.714ZM169.562 532.894L166.654 533.631C166.714 533.867 166.701 534.011 166.535 534.263L169.044 535.908L171.554 537.552C172.62 535.924 172.952 534.059 172.47 532.158L169.562 532.894ZM169.044 535.908L166.535 534.263C166.445 534.401 166.387 534.436 166.376 534.443C166.365 534.449 166.308 534.484 166.147 534.5L166.446 537.485L166.745 540.471C168.764 540.268 170.442 539.248 171.554 537.552L169.044 535.908ZM166.446 537.485L166.147 534.5C165.053 534.61 164.044 534.698 163.118 534.765L163.335 537.757L163.551 540.749C164.54 540.678 165.605 540.585 166.745 540.471L166.446 537.485ZM163.335 537.757L163.118 534.765C162.6 534.803 162.084 534.732 161.541 534.532L160.504 537.347L159.466 540.162C160.783 540.648 162.154 540.851 163.551 540.749L163.335 537.757ZM160.504 537.347L161.541 534.532C160.564 534.172 159.55 533.826 158.499 533.494L157.595 536.355L156.691 539.215C157.658 539.521 158.583 539.837 159.466 540.162L160.504 537.347ZM157.595 536.355L158.499 533.494C157.915 533.31 157.435 533.024 157.021 532.63L154.953 534.804L152.886 536.978C153.975 538.014 155.256 538.762 156.691 539.215L157.595 536.355ZM154.953 534.804L157.021 532.63C156.263 531.909 155.503 531.192 154.74 530.479L152.691 532.67L150.642 534.861C151.392 535.563 152.14 536.268 152.886 536.978L154.953 534.804ZM152.691 532.67L154.74 530.479C153.771 529.573 152.69 528.823 151.504 528.237L150.175 530.926L148.845 533.615C149.501 533.939 150.097 534.352 150.642 534.861L152.691 532.67ZM150.175 530.926L151.504 528.237C150.552 527.766 149.59 527.311 148.618 526.872L147.383 529.606L146.148 532.34C147.057 532.751 147.956 533.176 148.845 533.615L150.175 530.926ZM147.383 529.606L148.618 526.872C147.983 526.585 147.414 526.204 146.902 525.72L144.842 527.901L142.782 530.082C143.777 531.022 144.902 531.777 146.148 532.34L147.383 529.606ZM144.842 527.901L146.902 525.72C145.829 524.707 144.576 523.957 143.178 523.466L142.184 526.297L141.19 529.127C141.828 529.351 142.346 529.671 142.782 530.082L144.842 527.901ZM142.184 526.297L143.178 523.466C143.066 523.427 143.036 523.394 143.03 523.388C143.021 523.379 142.963 523.319 142.897 523.136L140.076 524.158L137.255 525.179C137.93 527.043 139.271 528.454 141.19 529.127L142.184 526.297ZM140.076 524.158L142.897 523.136C142.25 521.35 141.027 519.969 139.344 519.099L137.966 521.764L136.588 524.429C136.945 524.613 137.128 524.828 137.255 525.179L140.076 524.158ZM137.966 521.764L139.344 519.099C139.295 519.074 139.301 519.07 139.335 519.101C139.371 519.134 139.421 519.191 139.464 519.269C139.508 519.347 139.528 519.414 139.535 519.453C139.542 519.488 139.535 519.478 139.539 519.41L136.545 519.224L133.551 519.037C133.486 520.077 133.657 521.177 134.228 522.198C134.801 523.223 135.654 523.946 136.588 524.429L137.966 521.764ZM136.545 519.224L139.539 519.41C139.636 517.859 139.431 516.338 138.823 514.924L136.067 516.11L133.311 517.296C133.486 517.702 133.6 518.257 133.551 519.037L136.545 519.224ZM136.067 516.11L138.823 514.924C138.58 514.361 138.452 513.783 138.434 513.171L135.435 513.262L132.436 513.353C132.478 514.719 132.771 516.04 133.311 517.296L136.067 516.11ZM135.435 513.262L138.434 513.171C138.397 511.965 138.23 510.753 137.94 509.54L135.022 510.236L132.104 510.933C132.305 511.775 132.413 512.581 132.436 513.353L135.435 513.262ZM135.022 510.236L137.94 509.54C137.883 509.298 137.904 509.16 138.041 508.942L135.499 507.348L132.957 505.754C131.968 507.332 131.671 509.119 132.104 510.933L135.022 510.236ZM135.499 507.348L138.041 508.942C138.708 507.877 139.254 506.774 139.668 505.634L136.847 504.611L134.027 503.589C133.769 504.301 133.416 505.023 132.957 505.754L135.499 507.348ZM136.847 504.611L139.668 505.634C139.943 504.874 140.286 504.137 140.697 503.422L138.097 501.926L135.497 500.429C134.913 501.443 134.423 502.497 134.027 503.589L136.847 504.611ZM138.097 501.926L140.697 503.422C141.077 502.762 141.529 502.153 142.057 501.594L139.874 499.536L137.691 497.478C136.844 498.377 136.111 499.362 135.497 500.429L138.097 501.926ZM139.874 499.536L142.057 501.594C142.578 501.041 143.158 500.558 143.8 500.143L142.171 497.624L140.542 495.104C139.496 495.781 138.544 496.573 137.691 497.478L139.874 499.536ZM142.171 497.624L143.8 500.143C144.968 499.388 145.972 498.424 146.817 497.289L144.412 495.497L142.006 493.704C141.552 494.313 141.062 494.768 140.542 495.104L142.171 497.624ZM144.412 495.497L146.817 497.289C147.108 496.9 147.425 496.681 147.82 496.553L146.893 493.7L145.966 490.846C144.352 491.371 143.015 492.35 142.006 493.704L144.412 495.497ZM146.893 493.7L147.82 496.553C149.188 496.108 150.43 495.421 151.52 494.492L149.574 492.209L147.627 489.926C147.152 490.332 146.607 490.638 145.966 490.846L146.893 493.7ZM149.574 492.209L151.52 494.492C152.14 493.963 152.805 493.509 153.518 493.127L152.101 490.483L150.685 487.838C149.592 488.423 148.572 489.12 147.627 489.926L149.574 492.209ZM152.101 490.483L153.518 493.127C154.24 492.741 155.016 492.419 155.85 492.166L154.979 489.295L154.108 486.425C152.91 486.788 151.767 487.258 150.685 487.838L152.101 490.483ZM154.979 489.295L155.85 492.166C157.627 491.627 159.01 490.485 159.951 488.926L157.382 487.377L154.812 485.827C154.582 486.21 154.364 486.347 154.108 486.425L154.979 489.295ZM157.382 487.377L159.951 488.926C160.153 488.59 160.308 488.522 160.483 488.481L159.8 485.56L159.116 482.639C157.238 483.078 155.781 484.222 154.812 485.827L157.382 487.377ZM159.8 485.56L160.483 488.481C161.498 488.244 162.502 488.015 163.497 487.796L162.85 484.866L162.204 481.937C161.184 482.162 160.155 482.396 159.116 482.639L159.8 485.56ZM162.85 484.866L163.497 487.796C163.56 487.782 163.599 487.78 163.615 487.78C163.631 487.78 163.635 487.781 163.633 487.78C163.63 487.78 163.634 487.78 163.648 487.787C163.663 487.794 163.697 487.813 163.749 487.852L165.584 485.479L167.419 483.106C165.899 481.931 164.079 481.523 162.204 481.937L162.85 484.866ZM165.584 485.479L163.749 487.852C164.753 488.629 165.86 489.294 167.057 489.854L168.328 487.136L169.598 484.419C168.768 484.03 168.045 483.59 167.419 483.106L165.584 485.479ZM168.328 487.136L167.057 489.854C167.273 489.955 167.349 490.036 167.422 490.293L170.309 489.478L173.196 488.663C172.655 486.746 171.41 485.266 169.598 484.419L168.328 487.136ZM170.309 489.478L167.422 490.293C167.581 490.857 167.577 491.366 167.43 491.884L170.316 492.704L173.201 493.524C173.659 491.914 173.65 490.272 173.196 488.663L170.309 489.478ZM170.316 492.704L167.43 491.884C167.303 492.33 167.108 492.58 166.836 492.773L168.578 495.215L170.321 497.658C171.761 496.63 172.724 495.206 173.201 493.524L170.316 492.704ZM168.578 495.215L166.836 492.773C166.333 493.132 165.851 493.516 165.444 493.924C165.082 494.286 164.551 494.888 164.264 495.712L167.097 496.698L169.931 497.684C169.843 497.936 169.738 498.09 169.702 498.141C169.662 498.197 169.648 498.205 169.689 498.164C169.727 498.126 169.795 498.063 169.905 497.973C170.013 497.884 170.15 497.779 170.321 497.658L168.578 495.215ZM167.097 496.698L164.264 495.712C164.388 495.356 164.562 495.124 164.664 495.008C164.718 494.947 164.762 494.905 164.79 494.881C164.818 494.856 164.834 494.844 164.835 494.844C164.836 494.843 164.826 494.85 164.802 494.865C164.778 494.88 164.743 494.9 164.696 494.925C164.602 494.975 164.47 495.039 164.296 495.113L165.471 497.873L166.646 500.634C167.229 500.385 167.827 500.084 168.349 499.707C168.817 499.369 169.567 498.727 169.931 497.684L167.097 496.698Z" fill="#FD9483"/>
</g>
<g filter="url(#filter6_g_62_236)">
<path d="M857.1 497.265L874.543 508.603C876.639 509.966 876.639 513.034 874.543 514.397L857.1 525.735C855.166 526.992 854 529.141 854 531.447C854 536.852 859.993 540.105 864.525 537.159L881.249 526.288C891.95 519.333 891.95 503.667 881.249 496.712L864.525 485.841C859.993 482.895 854 486.148 854 491.553C854 493.859 855.166 496.008 857.1 497.265Z" fill="#FF5353" fill-opacity="0.62"/>
<path d="M866.188 502.935L868.647 501.217L866.188 502.935ZM871.235 506.4L870.664 509.345L871.235 506.4ZM874.034 507.749L876.015 505.496L874.034 507.749ZM875.61 510.258L872.713 511.04L875.61 510.258ZM870.681 516.623L868.215 514.914L870.681 516.623ZM868.241 518.484L869.195 521.328L868.241 518.484ZM865.621 520.068L863.539 517.908L865.621 520.068ZM860.709 523.742L858.912 521.339L860.709 523.742ZM854.503 529.644L851.587 530.349V530.349L854.503 529.644ZM857.699 537.62L859.441 535.177L857.699 537.62ZM868.936 534.633L871.368 536.389L868.936 534.633ZM876.436 529.328L876.815 532.304L876.436 529.328ZM879.069 527.763L876.613 526.04L879.069 527.763ZM885.57 521.529L882.992 519.994L885.57 521.529ZM887 518.919L884.319 517.573L887 518.919ZM885.981 501.868L888.634 500.466L885.981 501.868ZM874.192 492.57L872.203 494.816L874.192 492.57ZM871.809 490.622L870.004 493.018L871.809 490.622ZM869.188 489.038L867.904 491.749L869.188 489.038ZM866.601 487.404L864.705 489.729L866.601 487.404ZM855.789 486.888L853.06 485.641L855.789 486.888ZM854.505 492.509L851.804 493.815L854.505 492.509ZM855.89 495.054L853.335 496.626L855.89 495.054ZM856.857 496.748L859.573 495.474L856.857 496.748ZM858.151 498.456L855.901 500.44C856.982 501.666 858.338 502.52 859.907 502.973L860.738 500.09L861.569 497.207C861.089 497.069 860.72 496.834 860.4 496.471L858.151 498.456ZM860.738 500.09L859.907 502.973C860.876 503.252 861.827 503.556 862.76 503.886L863.759 501.057L864.758 498.229C863.712 497.859 862.649 497.519 861.569 497.207L860.738 500.09ZM863.759 501.057L862.76 503.886C863.128 504.016 863.439 504.238 863.729 504.653L866.188 502.935L868.647 501.217C867.677 499.828 866.368 498.797 864.758 498.229L863.759 501.057ZM866.188 502.935L863.729 504.653C864.536 505.808 865.496 506.806 866.614 507.616L868.374 505.187L870.134 502.757C869.599 502.369 869.101 501.865 868.647 501.217L866.188 502.935ZM868.374 505.187L866.614 507.616C867.822 508.491 869.189 509.059 870.664 509.345L871.235 506.4L871.806 503.454C871.121 503.322 870.58 503.081 870.134 502.757L868.374 505.187ZM871.235 506.4L870.664 509.345C871.25 509.458 871.689 509.683 872.053 510.003L874.034 507.749L876.015 505.496C874.808 504.435 873.381 503.76 871.806 503.454L871.235 506.4ZM874.034 507.749L872.053 510.003C872.408 510.315 872.607 510.644 872.713 511.04L875.61 510.258L878.506 509.476C878.082 507.908 877.23 506.565 876.015 505.496L874.034 507.749ZM875.61 510.258L872.713 511.04C872.811 511.401 872.803 511.747 872.648 512.166L875.462 513.207L878.275 514.248C878.848 512.7 878.939 511.08 878.506 509.476L875.61 510.258ZM875.462 513.207L872.648 512.166C872.637 512.196 872.636 512.187 872.658 512.157C872.68 512.124 872.715 512.086 872.758 512.05C872.802 512.015 872.835 512 872.843 511.996C872.85 511.993 872.823 512.006 872.748 512.019L873.269 514.973L873.79 517.928C875.857 517.563 877.514 516.306 878.275 514.248L875.462 513.207ZM873.269 514.973L872.748 512.019C870.872 512.35 869.304 513.341 868.215 514.914L870.681 516.623L873.146 518.331C873.312 518.092 873.47 517.984 873.79 517.928L873.269 514.973ZM870.681 516.623L868.215 514.914C867.937 515.314 867.643 515.52 867.287 515.64L868.241 518.484L869.195 521.328C870.836 520.778 872.168 519.743 873.146 518.331L870.681 516.623ZM868.241 518.484L867.287 515.64C865.872 516.114 864.612 516.873 863.539 517.908L865.621 520.068L867.703 522.228C868.125 521.82 868.612 521.524 869.195 521.328L868.241 518.484ZM865.621 520.068L863.539 517.908C862.924 518.5 862.27 519.022 861.577 519.475L863.218 521.986L864.859 524.497C865.873 523.835 866.822 523.077 867.703 522.228L865.621 520.068ZM863.218 521.986L861.577 519.475C860.67 520.067 859.781 520.689 858.912 521.339L860.709 523.742L862.507 526.144C863.274 525.569 864.058 525.021 864.859 524.497L863.218 521.986ZM860.709 523.742L858.912 521.339C858.089 521.956 857.272 522.57 856.464 523.184L858.276 525.574L860.089 527.965C860.887 527.359 861.693 526.752 862.507 526.144L860.709 523.742ZM858.276 525.574L856.464 523.184C855.816 523.675 855.074 524.138 854.229 524.567L855.587 527.242L856.946 529.916C858.079 529.341 859.129 528.692 860.089 527.965L858.276 525.574ZM855.587 527.242L854.229 524.567C853.288 525.045 852.369 525.813 851.84 526.985C851.315 528.149 851.343 529.339 851.587 530.349L854.503 529.644L857.419 528.939C857.397 528.85 857.473 529.09 857.309 529.453C857.141 529.824 856.898 529.941 856.946 529.916L855.587 527.242ZM854.503 529.644L851.587 530.349C851.798 531.223 851.869 531.968 851.842 532.598L854.839 532.728L857.837 532.858C857.892 531.575 857.739 530.263 857.419 528.939L854.503 529.644ZM854.839 532.728L851.842 532.598C851.773 534.203 852.205 535.71 853.064 537.048L855.589 535.428L858.114 533.809C857.89 533.46 857.823 533.167 857.837 532.858L854.839 532.728ZM855.589 535.428L853.064 537.048C853.823 538.232 854.799 539.236 855.956 540.062L857.699 537.62L859.441 535.177C858.867 534.768 858.436 534.311 858.114 533.809L855.589 535.428ZM857.699 537.62L855.956 540.062C857.448 541.126 859.181 541.55 860.996 541.292L860.573 538.321L860.151 535.351C859.864 535.392 859.68 535.348 859.441 535.177L857.699 537.62ZM860.573 538.321L860.996 541.292C862.41 541.09 863.744 540.64 864.962 539.92L863.437 537.337L861.912 534.754C861.414 535.048 860.838 535.254 860.151 535.351L860.573 538.321ZM863.437 537.337L864.962 539.92C865.491 539.608 866.128 539.365 866.906 539.218L866.35 536.27L865.794 533.322C864.405 533.584 863.1 534.052 861.912 534.754L863.437 537.337ZM866.35 536.27L866.906 539.218C868.738 538.873 870.274 537.905 871.368 536.389L868.936 534.633L866.503 532.877C866.317 533.136 866.13 533.259 865.794 533.322L866.35 536.27ZM868.936 534.633L871.368 536.389C871.85 535.721 872.376 535.18 872.942 534.745L871.112 532.367L869.283 529.989C868.227 530.802 867.301 531.771 866.503 532.877L868.936 534.633ZM871.112 532.367L872.942 534.745C873.758 534.117 874.572 533.486 875.385 532.852L873.54 530.487L871.695 528.121C870.893 528.747 870.089 529.369 869.283 529.989L871.112 532.367ZM873.54 530.487L875.385 532.852C875.723 532.589 876.168 532.386 876.815 532.304L876.436 529.328L876.057 526.352C874.457 526.555 872.971 527.126 871.695 528.121L873.54 530.487ZM876.436 529.328L876.815 532.304C878.747 532.057 880.391 531.101 881.524 529.486L879.069 527.763L876.613 526.04C876.483 526.225 876.371 526.312 876.057 526.352L876.436 529.328ZM879.069 527.763L881.524 529.486C881.897 528.954 882.304 528.613 882.744 528.388L881.378 525.717L880.012 523.046C878.636 523.75 877.503 524.772 876.613 526.04L879.069 527.763ZM881.378 525.717L882.744 528.388C883.957 527.768 885.035 526.959 885.963 525.967L883.772 523.917L881.582 521.868C881.134 522.346 880.616 522.737 880.012 523.046L881.378 525.717ZM883.772 523.917L885.963 525.967C886.797 525.076 887.526 524.108 888.147 523.064L885.57 521.529L882.992 519.994C882.593 520.664 882.124 521.288 881.582 521.868L883.772 523.917ZM885.57 521.529L888.147 523.064C888.694 522.146 889.206 521.213 889.681 520.266L887 518.919L884.319 517.573C883.909 518.391 883.466 519.198 882.992 519.994L885.57 521.529ZM887 518.919L889.681 520.266C890.195 519.242 890.627 518.181 890.976 517.086L888.118 516.175L885.26 515.264C885.005 516.062 884.692 516.831 884.319 517.573L887 518.919ZM888.118 516.175L890.976 517.086C891.334 515.964 891.586 514.817 891.734 513.646L888.758 513.269L885.782 512.893C885.679 513.703 885.505 514.493 885.26 515.264L888.118 516.175ZM888.758 513.269L891.734 513.646C891.904 512.307 891.838 510.972 891.538 509.656L888.613 510.322L885.688 510.989C885.832 511.621 885.863 512.251 885.782 512.893L888.758 513.269ZM888.613 510.322L891.538 509.656C891.415 509.114 891.393 508.489 891.525 507.751L888.571 507.226L885.617 506.702C885.361 508.144 885.368 509.583 885.688 510.989L888.613 510.322ZM888.571 507.226L891.525 507.751C891.876 505.775 891.364 503.884 889.992 502.377L887.774 504.397L885.555 506.416C885.599 506.464 885.618 506.495 885.624 506.506C885.63 506.517 885.63 506.518 885.629 506.515C885.628 506.512 885.631 506.519 885.632 506.543C885.633 506.568 885.632 506.619 885.617 506.702L888.571 507.226ZM887.774 504.397L889.992 502.377C889.425 501.754 888.978 501.117 888.634 500.466L885.981 501.868L883.329 503.269C883.925 504.397 884.672 505.446 885.555 506.416L887.774 504.397ZM885.981 501.868L888.634 500.466C888.185 499.617 887.733 498.715 887.279 497.759L884.569 499.047L881.86 500.336C882.348 501.361 882.837 502.339 883.329 503.269L885.981 501.868ZM884.569 499.047L887.279 497.759C886.563 496.253 885.475 495.03 884.039 494.17L882.498 496.744L880.957 499.318C881.341 499.548 881.634 499.86 881.86 500.336L884.569 499.047ZM882.498 496.744L884.039 494.17C882.774 493.413 881.389 492.932 879.916 492.711L879.471 495.678L879.026 498.645C879.769 498.756 880.403 498.986 880.957 499.318L882.498 496.744ZM879.471 495.678L879.916 492.711C879.248 492.611 878.758 492.395 878.372 492.107L876.579 494.512L874.786 496.917C876.039 497.852 877.477 498.413 879.026 498.645L879.471 495.678ZM876.579 494.512L878.372 492.107C877.621 491.547 876.89 490.953 876.181 490.324L874.192 492.57L872.203 494.816C873.037 495.555 873.898 496.256 874.786 496.917L876.579 494.512ZM874.192 492.57L876.181 490.324C875.35 489.588 874.494 488.889 873.613 488.225L871.809 490.622L870.004 493.018C870.756 493.585 871.489 494.184 872.203 494.816L874.192 492.57ZM871.809 490.622L873.613 488.225C872.633 487.487 871.586 486.854 870.473 486.327L869.188 489.038L867.904 491.749C868.651 492.103 869.35 492.526 870.004 493.018L871.809 490.622ZM869.188 489.038L870.473 486.327C869.761 485.989 869.104 485.574 868.497 485.079L866.601 487.404L864.705 489.729C865.688 490.531 866.756 491.205 867.904 491.749L869.188 489.038ZM866.601 487.404L868.497 485.079C867.562 484.316 866.567 483.645 865.513 483.066L864.07 485.696L862.626 488.326C863.358 488.728 864.05 489.194 864.705 489.729L866.601 487.404ZM864.07 485.696L865.513 483.066C864.118 482.301 862.591 481.963 860.999 482.093L861.243 485.083L861.487 488.073C861.879 488.041 862.236 488.112 862.626 488.326L864.07 485.696ZM861.243 485.083L860.999 482.093C860.032 482.172 859.012 482.242 857.938 482.305L858.113 485.3L858.287 488.295C859.403 488.23 860.469 488.156 861.487 488.073L861.243 485.083ZM858.113 485.3L857.938 482.305C856.94 482.363 855.926 482.647 855.018 483.267C854.11 483.888 853.476 484.73 853.06 485.641L855.789 486.888L858.517 488.134C858.539 488.087 858.545 488.086 858.525 488.112C858.502 488.14 858.462 488.181 858.403 488.222C858.344 488.262 858.291 488.284 858.258 488.295C858.228 488.304 858.233 488.298 858.287 488.295L858.113 485.3ZM855.789 486.888L853.06 485.641C852.605 486.635 852.168 487.593 851.747 488.514L854.475 489.761L857.204 491.008C857.625 490.087 858.063 489.129 858.517 488.134L855.789 486.888ZM854.475 489.761L851.747 488.514C850.955 490.247 850.974 492.099 851.804 493.815L854.505 492.509L857.206 491.203C857.18 491.15 857.171 491.118 857.168 491.107C857.166 491.097 857.167 491.098 857.167 491.106C857.167 491.115 857.166 491.116 857.168 491.106C857.171 491.095 857.179 491.063 857.204 491.008L854.475 489.761ZM854.505 492.509L851.804 493.815C852.285 494.809 852.794 495.747 853.335 496.626L855.89 495.054L858.446 493.482C858.02 492.791 857.607 492.033 857.206 491.203L854.505 492.509ZM855.89 495.054L853.335 496.626C853.819 497.412 854.06 497.848 854.142 498.023L856.857 496.748L859.573 495.474C859.332 494.96 858.928 494.266 858.446 493.482L855.89 495.054ZM856.857 496.748L854.142 498.023C854.513 498.813 855.234 499.685 855.901 500.44L858.151 498.456L860.4 496.471C860.079 496.106 859.848 495.827 859.694 495.622C859.617 495.521 859.571 495.454 859.546 495.416C859.518 495.372 859.537 495.396 859.573 495.474L856.857 496.748Z" fill="#FD9483"/>
</g>
<g filter="url(#filter7_g_62_236)">
<path d="M526.235 166.4L514.897 148.957C513.534 146.861 510.466 146.861 509.103 148.957L497.765 166.4C496.508 168.334 494.359 169.5 492.053 169.5C486.648 169.5 483.395 163.507 486.341 158.975L497.212 142.251C504.167 131.55 519.833 131.55 526.788 142.251L537.659 158.975C540.605 163.507 537.352 169.5 531.947 169.5C529.641 169.5 527.492 168.334 526.235 166.4Z" fill="#FF5353" fill-opacity="0.62"/>
<path d="M523.314 162.824L520.86 164.549L523.314 162.824ZM522.071 159.982L524.997 159.316L522.071 159.982ZM520.467 157.375L522.368 155.054L520.467 157.375ZM518.66 154.9L515.863 155.983L518.66 154.9ZM517.05 152.297L519.264 150.273L517.05 152.297ZM508.1 149.954L505.439 148.569L508.1 149.954ZM506.317 152.455L508.494 154.518L506.317 152.455ZM504.762 155.094L501.906 154.178L504.762 155.094ZM503.496 157.921L506.074 159.454L503.496 157.921ZM498.097 165.371L495.186 164.647L498.097 165.371ZM496.536 168.041L494.489 165.848L496.536 168.041ZM493.807 169.62L494.704 172.483L493.807 169.62ZM490.858 169.266L489.301 171.83L490.858 169.266ZM485.408 162.689L488.073 161.31L485.408 162.689ZM487.872 157.567L490.354 159.252V159.252L487.872 157.567ZM490.848 152.203L492.417 154.76L490.848 152.203ZM498.866 139.02L496.689 136.957L498.866 139.02ZM510.197 134.317L510.796 137.257L510.197 134.317ZM513.182 134.558L512.137 137.37L513.182 134.558ZM519.233 135.568L520.251 132.746L519.233 135.568ZM521.788 137.212L523.931 135.113L521.788 137.212ZM527.53 144.219L530.269 142.995L527.53 144.219ZM529.418 146.641L527.541 148.981L529.418 146.641ZM531.449 148.971L528.861 150.487L531.449 148.971ZM533.157 151.51L535.538 149.685L533.157 151.51ZM538.033 159.349L540.515 157.663L538.033 159.349ZM537.882 165.27L540.882 165.297L537.882 165.27ZM536.419 167.494L535.223 164.743V164.743L536.419 167.494ZM530.879 169.117L530.32 172.065L530.879 169.117ZM528.321 167.881L526.344 170.137L528.321 167.881ZM526.731 166.661L528.129 164.007L526.731 166.661ZM525.215 165.238L527.469 163.259C526.859 162.564 526.293 161.844 525.768 161.099L523.314 162.824L520.86 164.549C521.51 165.474 522.21 166.363 522.961 167.218L525.215 165.238ZM523.314 162.824L525.768 161.099C525.42 160.603 525.157 160.02 524.997 159.316L522.071 159.982L519.146 160.648C519.469 162.063 520.034 163.375 520.86 164.549L523.314 162.824ZM522.071 159.982L524.997 159.316C524.61 157.617 523.72 156.162 522.368 155.054L520.467 157.375L518.566 159.696C518.87 159.945 519.051 160.228 519.146 160.648L522.071 159.982ZM520.467 157.375L522.368 155.054C521.929 154.695 521.642 154.292 521.458 153.817L518.66 154.9L515.863 155.983C516.431 157.452 517.349 158.699 518.566 159.696L520.467 157.375ZM518.66 154.9L521.458 153.817C520.949 152.501 520.215 151.313 519.264 150.273L517.05 152.297L514.835 154.321C515.28 154.807 515.62 155.355 515.863 155.983L518.66 154.9ZM517.05 152.297L519.264 150.273C518.853 149.823 518.528 149.286 518.298 148.628L515.467 149.62L512.635 150.612C513.121 151.997 513.852 153.245 514.835 154.321L517.05 152.297ZM515.467 149.62L518.298 148.628C517.971 147.695 517.42 146.79 516.551 146.092C515.678 145.39 514.668 145.044 513.668 144.94L513.358 147.924L513.049 150.908C513.079 150.911 513.058 150.913 513.002 150.891C512.942 150.868 512.867 150.828 512.791 150.767C512.625 150.634 512.604 150.523 512.635 150.612L515.467 149.62ZM513.358 147.924L513.668 144.94C512.257 144.794 510.862 144.904 509.502 145.28L510.3 148.172L511.098 151.063C511.72 150.892 512.363 150.837 513.049 150.908L513.358 147.924ZM510.3 148.172L509.502 145.28C507.705 145.776 506.298 146.918 505.439 148.569L508.1 149.954L510.761 151.338C510.827 151.212 510.877 151.168 510.895 151.154C510.913 151.139 510.965 151.1 511.098 151.063L510.3 148.172ZM508.1 149.954L505.439 148.569C505.092 149.235 504.661 149.84 504.139 150.392L506.317 152.455L508.494 154.518C509.399 153.564 510.156 152.502 510.761 151.338L508.1 149.954ZM506.317 152.455L504.139 150.392C503.11 151.478 502.363 152.752 501.906 154.178L504.762 155.094L507.619 156.01C507.807 155.424 508.097 154.938 508.494 154.518L506.317 152.455ZM504.762 155.094L501.906 154.178C501.65 154.977 501.319 155.711 500.917 156.387L503.496 157.921L506.074 159.454C506.716 158.375 507.23 157.225 507.619 156.01L504.762 155.094ZM503.496 157.921L500.917 156.387C500.347 157.346 499.822 158.331 499.341 159.345L502.051 160.631L504.761 161.918C505.163 161.072 505.601 160.25 506.074 159.454L503.496 157.921ZM502.051 160.631L499.341 159.345C499.175 159.694 498.898 160.031 498.379 160.346L499.94 162.909L501.5 165.471C502.914 164.609 504.045 163.428 504.761 161.918L502.051 160.631ZM499.94 162.909L498.379 160.346C496.77 161.326 495.648 162.792 495.186 164.647L498.097 165.371L501.008 166.096C501.071 165.844 501.177 165.668 501.5 165.471L499.94 162.909ZM498.097 165.371L495.186 164.647C495.061 165.149 494.835 165.525 494.489 165.848L496.536 168.041L498.583 170.235C499.794 169.104 500.609 167.701 501.008 166.096L498.097 165.371ZM496.536 168.041L494.489 165.848C494.047 166.26 493.533 166.562 492.911 166.757L493.807 169.62L494.704 172.483C496.162 172.026 497.468 171.275 498.583 170.235L496.536 168.041ZM493.807 169.62L492.911 166.757C492.754 166.806 492.676 166.8 492.647 166.797C492.618 166.794 492.547 166.781 492.415 166.702L490.858 169.266L489.301 171.83C490.97 172.843 492.847 173.064 494.704 172.483L493.807 169.62ZM490.858 169.266L492.415 166.702C491.366 166.065 490.293 165.517 489.197 165.063L488.05 167.836L486.903 170.608C487.701 170.938 488.5 171.344 489.301 171.83L490.858 169.266ZM488.05 167.836L489.197 165.063C489.16 165.048 489.163 165.045 489.19 165.065C489.219 165.086 489.259 165.122 489.299 165.173C489.338 165.224 489.362 165.27 489.374 165.3C489.385 165.328 489.38 165.327 489.374 165.283L486.405 165.716L483.437 166.149C483.737 168.208 484.97 169.808 486.903 170.608L488.05 167.836ZM486.405 165.716L489.374 165.283C489.173 163.904 488.728 162.577 488.073 161.31L485.408 162.689L482.744 164.067C483.12 164.793 483.34 165.485 483.437 166.149L486.405 165.716ZM485.408 162.689L488.073 161.31C488.035 161.238 488.14 161.41 488.09 161.732C488.04 162.056 487.886 162.193 487.937 162.142L485.823 160.013L483.71 157.885C482.969 158.62 482.35 159.596 482.161 160.812C481.972 162.027 482.266 163.143 482.744 164.067L485.408 162.689ZM485.823 160.013L487.937 162.142C488.854 161.232 489.663 160.27 490.354 159.252L487.872 157.567L485.39 155.882C484.934 156.552 484.378 157.221 483.71 157.885L485.823 160.013ZM487.872 157.567L490.354 159.252C491.162 158.062 491.705 156.735 492.004 155.309L489.068 154.695L486.131 154.08C485.981 154.796 485.727 155.384 485.39 155.882L487.872 157.567ZM489.068 154.695L492.004 155.309C492.053 155.076 492.132 154.935 492.417 154.76L490.848 152.203L489.28 149.645C487.639 150.651 486.531 152.172 486.131 154.08L489.068 154.695ZM490.848 152.203L492.417 154.76C494.058 153.753 495.166 152.232 495.565 150.323L492.628 149.71L489.691 149.097C489.643 149.33 489.564 149.471 489.28 149.645L490.848 152.203ZM492.628 149.71L495.565 150.323C495.645 149.937 495.801 149.696 496.083 149.477L494.241 147.109L492.399 144.741C490.977 145.847 490.058 147.34 489.691 149.097L492.628 149.71ZM494.241 147.109L496.083 149.477C497.522 148.357 498.435 146.839 498.777 145.059L495.831 144.493L492.885 143.926C492.812 144.309 492.664 144.535 492.399 144.741L494.241 147.109ZM495.831 144.493L498.777 145.059C498.922 144.307 499.174 143.654 499.524 143.075L496.955 141.525L494.387 139.974C493.653 141.19 493.156 142.515 492.885 143.926L495.831 144.493ZM496.955 141.525L499.524 143.075C499.952 142.366 500.457 141.703 501.043 141.084L498.866 139.02L496.689 136.957C495.81 137.883 495.042 138.89 494.387 139.974L496.955 141.525ZM498.866 139.02L501.043 141.084C501.506 140.597 502.037 140.219 502.657 139.94L501.427 137.204L500.197 134.468C498.867 135.066 497.691 135.899 496.689 136.957L498.866 139.02ZM501.427 137.204L502.657 139.94C503.513 139.556 504.366 139.239 505.216 138.988L504.367 136.111L503.518 133.233C502.398 133.564 501.291 133.976 500.197 134.468L501.427 137.204ZM504.367 136.111L505.216 138.988C506.264 138.678 507.294 138.337 508.305 137.964L507.266 135.149L506.226 132.335C505.342 132.662 504.44 132.961 503.518 133.233L504.367 136.111ZM507.266 135.149L508.305 137.964C509.107 137.668 509.936 137.432 510.796 137.257L510.197 134.317L509.599 131.377C508.445 131.612 507.32 131.931 506.226 132.335L507.266 135.149ZM510.197 134.317L510.796 137.257C511.242 137.166 511.668 137.195 512.137 137.37L513.182 134.558L514.227 131.745C512.73 131.189 511.167 131.058 509.599 131.377L510.197 134.317ZM513.182 134.558L512.137 137.37C513.471 137.865 514.857 138.102 516.276 138.072L516.214 135.073L516.152 132.074C515.495 132.087 514.859 131.98 514.227 131.745L513.182 134.558ZM516.214 135.073L516.276 138.072C516.948 138.058 517.588 138.164 518.215 138.39L519.233 135.568L520.251 132.746C518.929 132.269 517.557 132.045 516.152 132.074L516.214 135.073ZM519.233 135.568L518.215 138.39C518.761 138.587 519.229 138.886 519.644 139.311L521.788 137.212L523.931 135.113C522.888 134.048 521.652 133.251 520.251 132.746L519.233 135.568ZM521.788 137.212L519.644 139.311C520.522 140.207 521.485 141.001 522.53 141.689L524.18 139.184L525.83 136.678C525.144 136.226 524.512 135.706 523.931 135.113L521.788 137.212ZM524.18 139.184L522.53 141.689C522.963 141.975 523.282 142.329 523.519 142.791L526.188 141.422L528.857 140.052C528.148 138.67 527.127 137.532 525.83 136.678L524.18 139.184ZM526.188 141.422L523.519 142.791C523.968 143.666 524.392 144.55 524.791 145.443L527.53 144.219L530.269 142.995C529.825 142.003 529.355 141.022 528.857 140.052L526.188 141.422ZM527.53 144.219L524.791 145.443C525.415 146.839 526.347 148.023 527.541 148.981L529.418 146.641L531.295 144.301C530.814 143.915 530.488 143.485 530.269 142.995L527.53 144.219ZM529.418 146.641L527.541 148.981C528.109 149.436 528.539 149.938 528.861 150.487L531.449 148.971L534.038 147.454C533.327 146.241 532.404 145.19 531.295 144.301L529.418 146.641ZM531.449 148.971L528.861 150.487C529.44 151.475 530.078 152.425 530.776 153.335L533.157 151.51L535.538 149.685C534.991 148.971 534.491 148.228 534.038 147.454L531.449 148.971ZM533.157 151.51L530.776 153.335C531.214 153.906 531.564 154.539 531.828 155.246L534.639 154.197L537.449 153.148C536.982 151.896 536.345 150.738 535.538 149.685L533.157 151.51ZM534.639 154.197L531.828 155.246C532.308 156.531 532.983 157.708 533.851 158.762L536.166 156.853L538.481 154.945C538.044 154.415 537.7 153.821 537.449 153.148L534.639 154.197ZM536.166 156.853L533.851 158.762C534.444 159.48 535.011 160.238 535.552 161.034L538.033 159.349L540.515 157.663C539.873 156.717 539.195 155.811 538.481 154.945L536.166 156.853ZM538.033 159.349L535.552 161.034C535.586 161.085 535.598 161.113 535.6 161.119C535.602 161.124 535.599 161.117 535.597 161.103C535.595 161.088 535.597 161.083 535.596 161.092C535.595 161.102 535.589 161.138 535.568 161.202L538.409 162.166L541.249 163.13C541.89 161.243 541.641 159.321 540.515 157.663L538.033 159.349ZM538.409 162.166L535.568 161.202C535.124 162.511 534.894 163.862 534.882 165.244L537.882 165.27L540.882 165.297C540.888 164.553 541.01 163.835 541.249 163.13L538.409 162.166ZM537.882 165.27L534.882 165.244C534.882 165.313 534.872 165.174 535.003 164.974C535.063 164.883 535.129 164.817 535.181 164.775C535.231 164.735 535.253 164.729 535.223 164.743L536.419 167.494L537.615 170.245C538.531 169.847 539.395 169.214 540.015 168.272C540.634 167.331 540.873 166.29 540.882 165.297L537.882 165.27ZM536.419 167.494L535.223 164.743C534.223 165.178 533.265 165.616 532.35 166.059L533.657 168.759L534.963 171.46C535.8 171.055 536.683 170.65 537.615 170.245L536.419 167.494ZM533.657 168.759L532.35 166.059C532.067 166.196 531.796 166.238 531.438 166.17L530.879 169.117L530.32 172.065C531.914 172.367 533.495 172.17 534.963 171.46L533.657 168.759ZM530.879 169.117L531.438 166.17C530.975 166.082 530.615 165.902 530.298 165.625L528.321 167.881L526.344 170.137C527.486 171.138 528.832 171.783 530.32 172.065L530.879 169.117ZM528.321 167.881L530.298 165.625C529.585 165 528.812 164.367 528.129 164.007L526.731 166.661L525.333 169.315C525.274 169.285 525.332 169.31 525.55 169.477C525.746 169.627 526.008 169.843 526.344 170.137L528.321 167.881ZM526.731 166.661L528.129 164.007C528.25 164.071 528.307 164.118 528.289 164.104C528.277 164.095 528.234 164.06 528.157 163.987C528 163.84 527.773 163.605 527.469 163.259L525.215 165.238L522.961 167.218C523.337 167.646 523.703 168.036 524.051 168.362C524.363 168.655 524.806 169.038 525.333 169.315L526.731 166.661Z" fill="#FD9483"/>
</g>
<g filter="url(#filter8_g_62_236)">
<path d="M526.235 856.6L514.897 874.043C513.534 876.139 510.466 876.139 509.103 874.043L497.765 856.6C496.508 854.666 494.359 853.5 492.053 853.5C486.648 853.5 483.396 859.493 486.341 864.025L497.212 880.749C504.167 891.45 519.833 891.45 526.788 880.749L537.659 864.025C540.605 859.493 537.352 853.5 531.947 853.5C529.641 853.5 527.492 854.666 526.235 856.6Z" fill="#FF5353" fill-opacity="0.62"/>
<path d="M525.64 858.038L522.868 856.892L525.64 858.038ZM519.799 865.19L517.441 863.336L519.799 865.19ZM518.002 867.671L515.504 866.009L518.002 867.671ZM516.676 870.459L519.537 871.362L516.676 870.459ZM515.424 873.312L512.828 871.808L515.424 873.312ZM508.449 872.819L511.368 872.126L508.449 872.819ZM507.214 869.962L504.73 871.643L507.214 869.962ZM505.567 867.382L508.138 865.836L505.567 867.382ZM502.385 862.152L499.873 863.792L502.385 862.152ZM493.779 854.101L493.414 851.123L493.779 854.101ZM486.07 862.91L488.301 860.905L486.07 862.91ZM487.6 865.61L484.734 866.495L487.6 865.61ZM490.696 870.897L492.201 868.302L490.696 870.897ZM496.205 878.265L498.374 876.192L496.205 878.265ZM497.947 880.761L500.645 879.45L497.947 880.761ZM499.773 883.075L497.881 885.403L499.773 883.075ZM501.998 885.09L499.869 887.204L501.998 885.09ZM504.503 886.612L503.61 889.476L504.503 886.612ZM510.138 888.987L510.096 885.987L510.138 888.987ZM513.295 889.148L512.952 892.128L513.295 889.148ZM521.709 885.527L521.057 882.598L521.709 885.527ZM523.974 883.711L521.258 882.439L523.974 883.711ZM525.771 881.216L523.731 879.017L525.771 881.216ZM527.595 878.822L524.936 877.433L527.595 878.822ZM533.06 871.426L530.965 869.28L533.06 871.426ZM534.932 868.993L532.316 867.526L534.932 868.993ZM536.649 866.46L538.982 868.346L536.649 866.46ZM537.902 863.695L540.854 864.233L537.902 863.695ZM538.639 860.622L541.513 861.484L538.639 860.622ZM535.978 855.758L538.267 853.819L535.978 855.758ZM533.733 853.691L535.527 851.286L533.733 853.691ZM525.64 858.038L522.868 856.892C522.607 857.522 522.25 858.079 521.789 858.577L523.991 860.615L526.192 862.654C527.138 861.632 527.88 860.471 528.413 859.184L525.64 858.038ZM523.991 860.615L521.789 858.577C521.106 859.315 520.41 860.045 519.702 860.767L521.842 862.868L523.983 864.97C524.732 864.207 525.469 863.435 526.192 862.654L523.991 860.615ZM521.842 862.868L519.702 860.767C518.897 861.586 518.143 862.443 517.441 863.336L519.799 865.19L522.157 867.044C522.721 866.327 523.329 865.636 523.983 864.97L521.842 862.868ZM519.799 865.19L517.441 863.336C516.759 864.203 516.113 865.094 515.504 866.009L518.002 867.671L520.499 869.334C521.02 868.55 521.573 867.787 522.157 867.044L519.799 865.19ZM518.002 867.671L515.504 866.009C514.777 867.102 514.215 868.289 513.815 869.557L516.676 870.459L519.537 871.362C519.774 870.611 520.096 869.939 520.499 869.334L518.002 867.671ZM516.676 870.459L513.815 869.557C513.561 870.363 513.231 871.111 512.828 871.808L515.424 873.312L518.02 874.815C518.649 873.728 519.154 872.575 519.537 871.362L516.676 870.459ZM515.424 873.312L512.828 871.808C512.601 872.2 512.254 872.564 511.69 872.887L513.18 875.49L514.671 878.094C516.064 877.296 517.213 876.207 518.02 874.815L515.424 873.312ZM513.18 875.49L511.69 872.887C511.644 872.913 511.64 872.909 511.674 872.899C511.712 872.889 511.771 872.88 511.843 872.883C511.914 872.886 511.966 872.9 511.99 872.908C512.011 872.916 511.992 872.912 511.933 872.873L510.269 875.37L508.606 877.866C509.457 878.433 510.463 878.831 511.594 878.878C512.73 878.925 513.772 878.609 514.671 878.094L513.18 875.49ZM510.269 875.37L511.933 872.873C511.56 872.625 511.433 872.399 511.368 872.126L508.449 872.819L505.53 873.512C505.969 875.358 507.055 876.833 508.606 877.866L510.269 875.37ZM508.449 872.819L511.368 872.126C511.038 870.737 510.487 869.445 509.698 868.28L507.214 869.962L504.73 871.643C505.085 872.168 505.357 872.781 505.53 873.512L508.449 872.819ZM507.214 869.962L509.698 868.28C509.156 867.479 508.636 866.665 508.138 865.836L505.567 867.382L502.996 868.929C503.55 869.849 504.128 870.754 504.73 871.643L507.214 869.962ZM505.567 867.382L508.138 865.836C507.616 864.969 507.098 864.099 506.583 863.227L503.999 864.752L501.416 866.276C501.939 867.163 502.466 868.047 502.996 868.929L505.567 867.382ZM503.999 864.752L506.583 863.227C506.041 862.309 505.479 861.404 504.897 860.512L502.385 862.152L499.873 863.792C500.406 864.608 500.92 865.436 501.416 866.276L503.999 864.752ZM502.385 862.152L504.897 860.512C504.211 859.462 503.408 858.498 502.494 857.619L500.415 859.782L498.337 861.946C498.933 862.518 499.443 863.133 499.873 863.792L502.385 862.152ZM500.415 859.782L502.494 857.619C501.724 856.879 500.949 856.15 500.171 855.433L498.138 857.639L496.105 859.845C496.852 860.534 497.596 861.234 498.337 861.946L500.415 859.782ZM498.138 857.639L500.171 855.433C499.612 854.918 499.132 854.334 498.726 853.675L496.171 855.246L493.615 856.818C494.307 857.942 495.138 858.954 496.105 859.845L498.138 857.639ZM496.171 855.246L498.726 853.675C498.206 852.83 497.465 852.068 496.457 851.585C495.45 851.103 494.395 851.003 493.414 851.123L493.779 854.101L494.144 857.079C494.209 857.071 494.075 857.097 493.865 856.997C493.77 856.951 493.698 856.897 493.651 856.852C493.606 856.81 493.598 856.79 493.615 856.818L496.171 855.246ZM493.779 854.101L493.414 851.123C492.473 851.238 491.591 851.296 490.767 851.299L490.78 854.299L490.792 857.299C491.875 857.295 492.993 857.22 494.144 857.079L493.779 854.101ZM490.78 854.299L490.767 851.299C489.365 851.305 488.001 851.62 486.694 852.182L487.88 854.937L489.065 857.693C489.719 857.412 490.287 857.301 490.792 857.299L490.78 854.299ZM487.88 854.937L486.694 852.182C485.112 852.862 483.863 853.985 482.98 855.451L485.55 856.999L488.12 858.547C488.384 858.107 488.688 857.856 489.065 857.693L487.88 854.937ZM485.55 856.999L482.98 855.451C482.076 856.952 481.694 858.623 481.863 860.369L484.849 860.079L487.835 859.789C487.791 859.334 487.876 858.951 488.12 858.547L485.55 856.999ZM484.849 860.079L481.863 860.369C482.029 862.076 482.683 863.629 483.839 864.915L486.07 862.91L488.301 860.905C488.043 860.617 487.883 860.283 487.835 859.789L484.849 860.079ZM486.07 862.91L483.839 864.915C484.255 865.378 484.549 865.896 484.734 866.495L487.6 865.61L490.466 864.724C490.026 863.297 489.299 862.015 488.301 860.905L486.07 862.91ZM487.6 865.61L484.734 866.495C485.069 867.579 485.44 868.64 485.849 869.68L488.641 868.583L491.433 867.485C491.08 866.587 490.758 865.667 490.466 864.724L487.6 865.61ZM488.641 868.583L485.849 869.68C486.502 871.342 487.677 872.613 489.19 873.492L490.696 870.897L492.201 868.302C491.737 868.033 491.542 867.762 491.433 867.485L488.641 868.583ZM490.696 870.897L489.19 873.492C489.35 873.585 489.399 873.651 489.411 873.668C489.421 873.683 489.457 873.736 489.481 873.884L492.443 873.411L495.406 872.937C495.083 870.92 493.948 869.315 492.201 868.302L490.696 870.897ZM492.443 873.411L489.481 873.884C489.763 875.65 490.591 877.2 491.966 878.379L493.919 876.101L495.871 873.823C495.632 873.618 495.476 873.375 495.406 872.937L492.443 873.411ZM493.919 876.101L491.966 878.379C492.7 879.008 493.389 879.66 494.036 880.337L496.205 878.265L498.374 876.192C497.587 875.368 496.752 874.578 495.871 873.823L493.919 876.101ZM496.205 878.265L494.036 880.337C494.543 880.868 494.943 881.444 495.248 882.072L497.947 880.761L500.645 879.45C500.062 878.25 499.301 877.163 498.374 876.192L496.205 878.265ZM497.947 880.761L495.248 882.072C495.88 883.372 496.761 884.493 497.881 885.403L499.773 883.075L501.665 880.747C501.238 880.4 500.902 879.978 500.645 879.45L497.947 880.761ZM499.773 883.075L497.881 885.403C498.571 885.964 499.234 886.564 499.869 887.204L501.998 885.09L504.127 882.976C503.343 882.187 502.522 881.444 501.665 880.747L499.773 883.075ZM501.998 885.09L499.869 887.204C500.923 888.265 502.182 889.03 503.61 889.476L504.503 886.612L505.397 883.748C504.903 883.594 504.492 883.345 504.127 882.976L501.998 885.09ZM504.503 886.612L503.61 889.476C504.223 889.667 504.841 889.979 505.467 890.444L507.256 888.035L509.044 885.627C507.922 884.793 506.705 884.156 505.397 883.748L504.503 886.612ZM507.256 888.035L505.467 890.444C506.848 891.469 508.446 892.011 510.18 891.987L510.138 888.987L510.096 885.987C509.735 885.992 509.413 885.9 509.044 885.627L507.256 888.035ZM510.138 888.987L510.18 891.987C511.096 891.974 512.02 892.021 512.952 892.128L513.295 889.148L513.638 886.168C512.455 886.031 511.274 885.971 510.096 885.987L510.138 888.987ZM513.295 889.148L512.952 892.128C514.568 892.314 516.143 892.052 517.613 891.355L516.327 888.645L515.041 885.934C514.583 886.151 514.137 886.225 513.638 886.168L513.295 889.148ZM516.327 888.645L517.613 891.355C518.825 890.78 519.936 890.05 520.936 889.168L518.951 886.919L516.966 884.669C516.394 885.174 515.756 885.595 515.041 885.934L516.327 888.645ZM518.951 886.919L520.936 889.168C521.33 888.82 521.788 888.583 522.362 888.455L521.709 885.527L521.057 882.598C519.525 882.94 518.143 883.631 516.966 884.669L518.951 886.919ZM521.709 885.527L522.362 888.455C524.321 888.018 525.839 886.803 526.691 884.984L523.974 883.711L521.258 882.439C521.228 882.503 521.205 882.536 521.195 882.548C521.186 882.56 521.184 882.56 521.189 882.556C521.195 882.552 521.194 882.554 521.18 882.56C521.165 882.567 521.127 882.583 521.057 882.598L521.709 885.527ZM523.974 883.711L526.691 884.984C526.995 884.335 527.372 883.824 527.812 883.415L525.771 881.216L523.731 879.017C522.689 879.985 521.867 881.137 521.258 882.439L523.974 883.711ZM525.771 881.216L527.812 883.415C528.807 882.492 529.623 881.419 530.254 880.211L527.595 878.822L524.936 877.433C524.618 878.042 524.218 878.565 523.731 879.017L525.771 881.216ZM527.595 878.822L530.254 880.211C530.584 879.579 531.007 879.004 531.533 878.479L529.414 876.355L527.296 874.231C526.344 875.18 525.554 876.249 524.936 877.433L527.595 878.822ZM529.414 876.355L531.533 878.479C532.486 877.529 533.276 876.457 533.893 875.268L531.23 873.886L528.567 872.504C528.24 873.135 527.819 873.709 527.296 874.231L529.414 876.355ZM531.23 873.886L533.893 875.268C534.215 874.648 534.632 874.085 535.156 873.573L533.06 871.426L530.965 869.28C529.993 870.228 529.19 871.305 528.567 872.504L531.23 873.886ZM533.06 871.426L535.156 873.573C536.105 872.647 536.906 871.608 537.549 870.46L534.932 868.993L532.316 867.526C531.959 868.162 531.512 868.745 530.965 869.28L533.06 871.426ZM534.932 868.993L537.549 870.46C537.966 869.717 538.443 869.012 538.982 868.346L536.649 866.46L534.317 864.573C533.566 865.502 532.898 866.487 532.316 867.526L534.932 868.993ZM536.649 866.46L538.982 868.346C539.955 867.144 540.577 865.754 540.854 864.233L537.902 863.695L534.951 863.157C534.847 863.728 534.634 864.181 534.317 864.573L536.649 866.46ZM537.902 863.695L540.854 864.233C541.025 863.295 541.245 862.378 541.513 861.484L538.639 860.622L535.766 859.761C535.433 860.871 535.161 862.004 534.951 863.157L537.902 863.695ZM538.639 860.622L541.513 861.484C542.13 859.426 541.623 857.422 540.147 855.891L537.987 857.972L535.826 860.053C535.861 860.089 535.86 860.096 535.845 860.07C535.828 860.042 535.805 859.992 535.789 859.925C535.772 859.858 535.769 859.799 535.77 859.76C535.772 859.723 535.777 859.721 535.766 859.761L538.639 860.622ZM537.987 857.972L540.147 855.891C539.45 855.167 538.824 854.477 538.267 853.819L535.978 855.758L533.689 857.698C534.339 858.465 535.052 859.25 535.826 860.053L537.987 857.972ZM535.978 855.758L538.267 853.819C537.492 852.904 536.568 852.063 535.527 851.286L533.733 853.691L531.94 856.096C532.685 856.651 533.258 857.189 533.689 857.698L535.978 855.758ZM533.733 853.691L535.527 851.286C534.707 850.674 533.707 850.227 532.558 850.152C531.409 850.078 530.36 850.393 529.468 850.896L530.939 853.51L532.41 856.125C532.454 856.1 532.45 856.109 532.401 856.121C532.349 856.134 532.269 856.146 532.171 856.14C532.074 856.133 531.996 856.112 531.947 856.092C531.901 856.074 531.899 856.065 531.94 856.096L533.733 853.691ZM530.939 853.51L529.468 850.896C528.429 851.48 527.468 852.076 526.59 852.684L528.297 855.151L530.004 857.618C530.709 857.13 531.509 856.632 532.41 856.125L530.939 853.51ZM528.297 855.151L526.59 852.684C525.8 853.23 525.238 853.623 524.922 853.849L526.672 856.286L528.421 858.723C528.689 858.531 529.21 858.167 530.004 857.618L528.297 855.151ZM526.672 856.286L524.922 853.849C524.255 854.328 523.839 854.97 523.611 855.359C523.341 855.817 523.095 856.343 522.868 856.892L525.64 858.038L528.413 859.184C528.495 858.986 528.568 858.821 528.632 858.687C528.697 858.552 528.747 858.46 528.781 858.403C528.816 858.343 528.819 858.346 528.785 858.389C528.767 858.412 528.731 858.455 528.676 858.509C528.622 858.563 528.538 858.64 528.421 858.723L526.672 856.286Z" fill="#FD9483"/>
</g>
<defs>
<filter id="filter0_dddddd_62_236" x="41.4178" y="41.4178" width="941.164" height="941.164" filterUnits="userSpaceOnUse" color-interpolation-filters="sRGB">
<feFlood flood-opacity="0" result="BackgroundImageFix"/>
<feColorMatrix in="SourceAlpha" type="matrix" values="0 0 0 0 0 0 0 0 0 0 0 0 0 0 0 0 0 0 127 0" result="hardAlpha"/>
<feOffset/>
<feGaussianBlur stdDeviation="1.23312"/>
<feColorMatrix type="matrix" values="0 0 0 0 0.980392 0 0 0 0 0.807843 0 0 0 0 0.619608 0 0 0 1 0"/>
<feBlend mode="normal" in2="BackgroundImageFix" result="effect1_dropShadow_62_236"/>
<feColorMatrix in="SourceAlpha" type="matrix" values="0 0 0 0 0 0 0 0 0 0 0 0 0 0 0 0 0 0 127 0" result="hardAlpha"/>
<feOffset/>
<feGaussianBlur stdDeviation="2.46624"/>
<feColorMatrix type="matrix" values="0 0 0 0 0.980392 0 0 0 0 0.807843 0 0 0 0 0.619608 0 0 0 1 0"/>
<feBlend mode="normal" in2="effect1_dropShadow_62_236" result="effect2_dropShadow_62_236"/>
<feColorMatrix in="SourceAlpha" type="matrix" values="0 0 0 0 0 0 0 0 0 0 0 0 0 0 0 0 0 0 127 0" result="hardAlpha"/>
<feOffset/>
<feGaussianBlur stdDeviation="8.63185"/>
<feColorMatrix type="matrix" values="0 0 0 0 0.980392 0 0 0 0 0.807843 0 0 0 0 0.619608 0 0 0 1 0"/>
<feBlend mode="normal" in2="effect2_dropShadow_62_236" result="effect3_dropShadow_62_236"/>
<feColorMatrix in="SourceAlpha" type="matrix" values="0 0 0 0 0 0 0 0 0 0 0 0 0 0 0 0 0 0 127 0" result="hardAlpha"/>
<feOffset/>
<feGaussianBlur stdDeviation="17.2637"/>
<feColorMatrix type="matrix" values="0 0 0 0 0.980392 0 0 0 0 0.807843 0 0 0 0 0.619608 0 0 0 1 0"/>
<feBlend mode="normal" in2="effect3_dropShadow_62_236" result="effect4_dropShadow_62_236"/>
<feColorMatrix in="SourceAlpha" type="matrix" values="0 0 0 0 0 0 0 0 0 0 0 0 0 0 0 0 0 0 127 0" result="hardAlpha"/>
<feOffset/>
<feGaussianBlur stdDeviation="29.5949"/>
<feColorMatrix type="matrix" values="0 0 0 0 0.980392 0 0 0 0 0.807843 0 0 0 0 0.619608 0 0 0 1 0"/>
<feBlend mode="normal" in2="effect4_dropShadow_62_236" result="effect5_dropShadow_62_236"/>
<feColorMatrix in="SourceAlpha" type="matrix" values="0 0 0 0 0 0 0 0 0 0 0 0 0 0 0 0 0 0 127 0" result="hardAlpha"/>
<feOffset/>
<feGaussianBlur stdDeviation="51.7911"/>
<feColorMatrix type="matrix" values="0 0 0 0 0.980392 0 0 0 0 0.807843 0 0 0 0 0.619608 0 0 0 1 0"/>
<feBlend mode="normal" in2="effect5_dropShadow_62_236" result="effect6_dropShadow_62_236"/>
<feBlend mode="normal" in="SourceGraphic" in2="effect6_dropShadow_62_236" result="shape"/>
</filter>
<filter id="filter1_d_62_236" x="404" y="573" width="213" height="351" filterUnits="userSpaceOnUse" color-interpolation-filters="sRGB">
<feFlood flood-opacity="0" result="BackgroundImageFix"/>
<feColorMatrix in="SourceAlpha" type="matrix" values="0 0 0 0 0 0 0 0 0 0 0 0 0 0 0 0 0 0 127 0" result="hardAlpha"/>
<feOffset dy="8"/>
<feGaussianBlur stdDeviation="4"/>
<feComposite in2="hardAlpha" operator="out"/>
<feColorMatrix type="matrix" values="0 0 0 0 0 0 0 0 0 0 0 0 0 0 0 0 0 0 0.25 0"/>
<feBlend mode="normal" in2="BackgroundImageFix" result="effect1_dropShadow_62_236"/>
<feBlend mode="normal" in="SourceGraphic" in2="effect1_dropShadow_62_236" result="shape"/>
</filter>
<filter id="filter2_d_62_236" x="404" y="95.9995" width="213" height="353" filterUnits="userSpaceOnUse" color-interpolation-filters="sRGB">
<feFlood flood-opacity="0" result="BackgroundImageFix"/>
<feColorMatrix in="SourceAlpha" type="matrix" values="0 0 0 0 0 0 0 0 0 0 0 0 0 0 0 0 0 0 127 0" result="hardAlpha"/>
<feOffset dy="-8"/>
<feGaussianBlur stdDeviation="4"/>
<feComposite in2="hardAlpha" operator="out"/>
<feColorMatrix type="matrix" values="0 0 0 0 0 0 0 0 0 0 0 0 0 0 0 0 0 0 0.25 0"/>
<feBlend mode="normal" in2="BackgroundImageFix" result="effect1_dropShadow_62_236"/>
<feBlend mode="normal" in="SourceGraphic" in2="effect1_dropShadow_62_236" result="shape"/>
</filter>
<filter id="filter3_d_62_236" x="577" y="405" width="351" height="213" filterUnits="userSpaceOnUse" color-interpolation-filters="sRGB">
<feFlood flood-opacity="0" result="BackgroundImageFix"/>
<feColorMatrix in="SourceAlpha" type="matrix" values="0 0 0 0 0 0 0 0 0 0 0 0 0 0 0 0 0 0 127 0" result="hardAlpha"/>
<feOffset dx="8"/>
<feGaussianBlur stdDeviation="4"/>
<feComposite in2="hardAlpha" operator="out"/>
<feColorMatrix type="matrix" values="0 0 0 0 0 0 0 0 0 0 0 0 0 0 0 0 0 0 0.25 0"/>
<feBlend mode="normal" in2="BackgroundImageFix" result="effect1_dropShadow_62_236"/>
<feBlend mode="normal" in="SourceGraphic" in2="effect1_dropShadow_62_236" result="shape"/>
</filter>
<filter id="filter4_d_62_236" x="95.9999" y="405" width="354" height="213" filterUnits="userSpaceOnUse" color-interpolation-filters="sRGB">
<feFlood flood-opacity="0" result="BackgroundImageFix"/>
<feColorMatrix in="SourceAlpha" type="matrix" values="0 0 0 0 0 0 0 0 0 0 0 0 0 0 0 0 0 0 127 0" result="hardAlpha"/>
<feOffset dx="-8"/>
<feGaussianBlur stdDeviation="4"/>
<feComposite in2="hardAlpha" operator="out"/>
<feColorMatrix type="matrix" values="0 0 0 0 0 0 0 0 0 0 0 0 0 0 0 0 0 0 0.25 0"/>
<feBlend mode="normal" in2="BackgroundImageFix" result="effect1_dropShadow_62_236"/>
<feBlend mode="normal" in="SourceGraphic" in2="effect1_dropShadow_62_236" result="shape"/>
</filter>
<filter id="filter5_g_62_236" x="127.911" y="477.78" width="49.63" height="66.9949" filterUnits="userSpaceOnUse" color-interpolation-filters="sRGB">
<feFlood flood-opacity="0" result="BackgroundImageFix"/>
<feBlend mode="normal" in="SourceGraphic" in2="BackgroundImageFix" result="shape"/>
<feTurbulence type="fractalNoise" baseFrequency="0.99900001287460327 0.99900001287460327" numOctaves="3" seed="0" />
<feDisplacementMap in="shape" scale="8" xChannelSelector="R" yChannelSelector="G" result="displacedImage" width="100%" height="100%" />
<feMerge result="effect1_texture_62_236">
<feMergeNode in="displacedImage"/>
</feMerge>
</filter>
<filter id="filter6_g_62_236" x="847.167" y="478.066" width="48.6589" height="67.2996" filterUnits="userSpaceOnUse" color-interpolation-filters="sRGB">
<feFlood flood-opacity="0" result="BackgroundImageFix"/>
<feBlend mode="normal" in="SourceGraphic" in2="BackgroundImageFix" result="shape"/>
<feTurbulence type="fractalNoise" baseFrequency="0.99900001287460327 0.99900001287460327" numOctaves="3" seed="0" />
<feDisplacementMap in="shape" scale="8" xChannelSelector="R" yChannelSelector="G" result="displacedImage" width="100%" height="100%" />
<feMerge result="effect1_texture_62_236">
<feMergeNode in="displacedImage"/>
</feMerge>
</filter>
<filter id="filter7_g_62_236" x="478.103" y="127.207" width="67.4928" height="49.5928" filterUnits="userSpaceOnUse" color-interpolation-filters="sRGB">
<feFlood flood-opacity="0" result="BackgroundImageFix"/>
<feBlend mode="normal" in="SourceGraphic" in2="BackgroundImageFix" result="shape"/>
<feTurbulence type="fractalNoise" baseFrequency="0.99900001287460327 0.99900001287460327" numOctaves="3" seed="0" />
<feDisplacementMap in="shape" scale="8" xChannelSelector="R" yChannelSelector="G" result="displacedImage" width="100%" height="100%" />
<feMerge result="effect1_texture_62_236">
<feMergeNode in="displacedImage"/>
</feMerge>
</filter>
<filter id="filter8_g_62_236" x="477.824" y="846.141" width="67.9459" height="50.0449" filterUnits="userSpaceOnUse" color-interpolation-filters="sRGB">
<feFlood flood-opacity="0" result="BackgroundImageFix"/>
<feBlend mode="normal" in="SourceGraphic" in2="BackgroundImageFix" result="shape"/>
<feTurbulence type="fractalNoise" baseFrequency="0.99900001287460327 0.99900001287460327" numOctaves="3" seed="0" />
<feDisplacementMap in="shape" scale="8" xChannelSelector="R" yChannelSelector="G" result="displacedImage" width="100%" height="100%" />
<feMerge result="effect1_texture_62_236">
<feMergeNode in="displacedImage"/>
</feMerge>
</filter>
<radialGradient id="paint0_radial_62_236" cx="0" cy="0" r="1" gradientUnits="userSpaceOnUse" gradientTransform="translate(512 512) rotate(90) scale(431.158)">
<stop stop-color="#FFCF87"/>
<stop offset="0.871647" stop-color="#FF6F16"/>
<stop offset="1" stop-color="#DC6C4E"/>
</radialGradient>
<linearGradient id="paint1_linear_62_236" x1="510.5" y1="573" x2="510.5" y2="908" gradientUnits="userSpaceOnUse">
<stop stop-color="#FACE9E"/>
<stop offset="0.5" stop-color="#FBFCD0"/>
</linearGradient>
<linearGradient id="paint2_linear_62_236" x1="510.5" y1="449" x2="510.5" y2="112" gradientUnits="userSpaceOnUse">
<stop stop-color="#FACE9E"/>
<stop offset="0.5" stop-color="#FBFCD0"/>
</linearGradient>
<linearGradient id="paint3_linear_62_236" x1="577" y1="511.5" x2="912" y2="511.5" gradientUnits="userSpaceOnUse">
<stop stop-color="#FACE9E"/>
<stop offset="0.5" stop-color="#FBFCD0"/>
</linearGradient>
<linearGradient id="paint4_linear_62_236" x1="450" y1="511.5" x2="112" y2="511.5" gradientUnits="userSpaceOnUse">
<stop stop-color="#FACE9E"/>
<stop offset="0.5" stop-color="#FBFCD0"/>
</linearGradient>
</defs>
</svg>
